<?xml version="1.0" encoding="utf-8"?>
<!-- Generator: Adobe Illustrator 19.1.0, SVG Export Plug-In . SVG Version: 6.00 Build 0)  -->
<svg version="1.2" baseProfile="tiny" id="Layer_1" xmlns="http://www.w3.org/2000/svg" xmlns:xlink="http://www.w3.org/1999/xlink"
	 x="0px" y="0px" width="632px" height="729.6px" viewBox="0 0 632 729.6" xml:space="preserve">
<g>
	<path d="M115.2,677.6c0-2.5-0.2-3.3-1.7-3.5l-0.8-0.1c-0.3-0.2-0.3-0.8,0-0.9c3-0.2,6-0.3,9-0.3c3,0,5.6,0.2,7.9,1.1
		c4.8,1.8,7.3,5.8,7.3,10.6c0,4.6-2.2,8.5-6.3,10.7c-2.3,1.3-5.3,1.7-8,1.7c-2.3,0-4.6-0.3-5.8-0.3c-1.5,0-2.8,0-4.5,0.1
		c-0.2-0.1-0.3-0.7-0.1-0.9l0.8-0.1c2.1-0.3,2.2-0.7,2.2-4.5V677.6z M118.1,690.4c0,1.9,0.1,3,0.7,3.9c0.8,1.1,2.2,1.5,4.4,1.5
		c7,0,10.1-4.6,10.1-11.2c0-3.9-1.9-10.6-11.3-10.6c-2.1,0-3.3,0.3-3.6,0.5c-0.3,0.2-0.4,1.1-0.4,2.7V690.4z"/>
	<path d="M143.5,686.3c0-1.4,0-1.6-1-2.2l-0.3-0.2c-0.1-0.1-0.1-0.5,0-0.6c0.8-0.3,2.9-1.2,3.7-1.8c0.2,0,0.3,0.1,0.4,0.2
		c-0.1,1.3-0.1,3-0.1,4.4v6.5c0,2.6,0.1,2.9,1.4,3.1l0.8,0.1c0.3,0.2,0.2,0.8-0.1,0.9c-1.1-0.1-2.1-0.1-3.4-0.1
		c-1.3,0-2.4,0-3.4,0.1c-0.3-0.1-0.3-0.7-0.1-0.9l0.8-0.1c1.3-0.2,1.4-0.5,1.4-3.1V686.3z M146.4,676.1c0,1.3-0.9,1.9-1.9,1.9
		c-1.1,0-1.8-0.8-1.8-1.8c0-1.2,0.9-1.9,1.9-1.9S146.4,675.1,146.4,676.1z"/>
	<path d="M166.9,683.3c0.4,0.2,0.3,1.4-0.2,1.5h-2.6c0.1,0.6,0.1,1.2,0.1,1.8c0,2.5-1.5,5.7-6,5.7c-0.6,0-1.1-0.1-1.6-0.1
		c-0.4,0.3-1.6,0.9-1.6,2c0,0.8,0.8,1.5,2.5,1.5c1.2,0,2.7-0.1,4.3-0.1c2,0,5,0.4,5,3.9c0,3.9-4.3,6.8-8.9,6.8c-4.4,0-6-2.4-6-4.2
		c0-0.6,0.1-1,0.4-1.3c0.6-0.6,1.6-1.6,2.4-2.4c0.3-0.3,0.6-0.6,0.3-0.9c-1.4-0.4-2.6-1.6-2.6-2.8c0-0.2,0.1-0.3,0.5-0.6
		c0.6-0.4,1.3-1,1.9-1.6c0.2-0.2,0.4-0.5,0.4-0.7c-1.2-0.6-2.7-2-2.7-4.3c0-3.1,2.7-5.4,5.8-5.4c1.4,0,2.6,0.4,3.4,0.7
		c1.1,0.5,1.4,0.6,2.2,0.6H166.9z M159.4,697.8c-1.1,0-2.6,0.1-3.1,0.4c-0.9,0.5-1.7,1.6-1.7,3c0,1.9,1.5,3.5,4.8,3.5
		c3.2,0,5.3-1.8,5.3-3.8c0-2.2-1.5-3.1-4.1-3.1H159.4z M161.7,687.5c0-2.4-1-4.5-3.2-4.5c-1.7,0-3,1.6-3,4c0,2.5,1.5,4.2,3.3,4.2
		C160.7,691.2,161.7,689.7,161.7,687.5z"/>
	<path d="M172.2,686.3c0-1.4,0-1.6-1-2.2l-0.3-0.2c-0.1-0.1-0.1-0.5,0-0.6c0.8-0.3,2.9-1.2,3.7-1.8c0.2,0,0.3,0.1,0.4,0.2
		c-0.1,1.3-0.1,3-0.1,4.4v6.5c0,2.6,0.1,2.9,1.4,3.1l0.8,0.1c0.3,0.2,0.2,0.8-0.1,0.9c-1.1-0.1-2.1-0.1-3.4-0.1
		c-1.3,0-2.4,0-3.4,0.1c-0.3-0.1-0.3-0.7-0.1-0.9l0.8-0.1c1.3-0.2,1.4-0.5,1.4-3.1V686.3z M175.2,676.1c0,1.3-0.9,1.9-1.9,1.9
		c-1.1,0-1.8-0.8-1.8-1.8c0-1.2,0.9-1.9,1.9-1.9S175.2,675.1,175.2,676.1z"/>
	<path d="M186.2,684c-0.6,0-0.6,0.1-0.6,0.9v6.7c0,2.1,0.3,4,2.6,4c0.4,0,0.7-0.1,1-0.2c0.3-0.1,0.8-0.5,0.9-0.5
		c0.3,0,0.4,0.4,0.4,0.6c-0.6,0.8-1.9,1.6-3.8,1.6c-3.1,0-3.7-1.7-3.7-3.9V685c0-1,0-1-0.8-1h-1c-0.2-0.1-0.3-0.5-0.1-0.8
		c1-0.3,1.9-0.8,2.3-1.1c0.5-0.4,1.1-1.4,1.5-2.1c0.2-0.1,0.6-0.1,0.8,0.2v1.6c0,0.6,0,0.7,0.6,0.7h4c0.4,0.3,0.4,1.3,0,1.5H186.2z"
		/>
	<path d="M201,689.2c0.5-0.2,0.6-0.5,0.6-1l0-1.6c0-1.3-0.4-3.1-2.6-3.1c-1,0-2.2,0.5-2.3,1.6c0,0.6-0.1,1-0.4,1.2
		c-0.5,0.4-1.5,0.7-2,0.7c-0.3,0-0.5-0.2-0.5-0.5c0-1.9,4.1-4.4,6.7-4.4c2.6,0,3.8,1.5,3.7,4.2l-0.2,6.2c-0.1,1.6,0.3,3.1,1.6,3.1
		c0.4,0,0.7-0.1,0.9-0.2c0.2-0.1,0.4-0.3,0.5-0.3c0.1,0,0.3,0.2,0.3,0.5c0,0.2-1.3,1.6-3,1.6c-0.9,0-1.7-0.3-2.3-1.1
		c-0.1-0.2-0.4-0.5-0.6-0.5c-0.3,0-0.7,0.3-1.4,0.7c-0.8,0.4-1.6,0.9-2.6,0.9c-1,0-1.9-0.3-2.5-0.8c-0.7-0.6-1.1-1.5-1.1-2.5
		c0-1.4,0.7-2.2,3-3L201,689.2z M198.8,695.5c0.7,0,1.8-0.5,2.2-0.9c0.4-0.4,0.4-0.9,0.5-1.7l0.1-2.1c0-0.4-0.1-0.5-0.4-0.5
		c-0.2,0-0.8,0.1-1.5,0.4c-2.1,0.7-3.2,1.3-3.2,2.7C196.6,694,197,695.5,198.8,695.5z"/>
	<path d="M214.6,692.6c0,2.6,0.1,2.9,1.4,3.1l0.9,0.1c0.3,0.2,0.2,0.8-0.1,0.9c-1.2-0.1-2.2-0.1-3.5-0.1c-1.3,0-2.4,0-3.4,0.1
		c-0.3-0.1-0.3-0.7-0.1-0.9l0.8-0.1c1.3-0.2,1.4-0.5,1.4-3.1v-16.2c0-2.1,0-2.3-1.1-3l-0.4-0.2c-0.2-0.1-0.2-0.6,0-0.7
		c0.9-0.3,2.6-0.8,3.9-1.5c0.1,0,0.3,0.1,0.4,0.2c0,1.1-0.1,2.9-0.1,4.4V692.6z"/>
	<path d="M244.8,688.3c-0.3-0.8-0.4-0.9-1.5-0.9h-5.4c-0.9,0-1.1,0.1-1.4,0.9l-1.3,3.8c-0.5,1.6-0.8,2.6-0.8,3c0,0.4,0.2,0.6,1,0.7
		l1.2,0.1c0.3,0.2,0.3,0.8-0.1,0.9c-0.9-0.1-2-0.1-3.7-0.1c-1.2,0-2.5,0.1-3.4,0.1c-0.2-0.1-0.3-0.7-0.1-0.9l1.2-0.1
		c0.9-0.1,1.6-0.5,2.2-1.8c0.6-1.6,1.6-4,3.2-8l3.7-9.7c0.5-1.3,0.7-2,0.6-2.5c0.9-0.3,1.5-0.9,1.9-1.4c0.2,0,0.5,0.1,0.5,0.3
		c0.5,1.6,1,3.2,1.6,4.8l4.9,14.4c1,3.1,1.5,3.6,3,3.8l1,0.1c0.3,0.2,0.2,0.8,0,0.9c-1.5-0.1-2.7-0.1-4.3-0.1
		c-1.7,0-3.1,0.1-4.1,0.1c-0.3-0.1-0.3-0.7-0.1-0.9l1-0.1c0.8-0.1,1.3-0.3,1.3-0.6c0-0.4-0.2-1-0.5-1.9L244.8,688.3z M237.7,685.1
		c-0.3,0.8-0.3,0.9,0.8,0.9h4.4c1,0,1.1-0.1,0.8-1.1l-1.9-5.8c-0.3-0.9-0.6-1.8-0.8-2.3h-0.1c-0.1,0.2-0.5,1-0.9,2.1L237.7,685.1z"
		/>
	<path d="M259.4,691.3c0,2.5,0.6,4.1,3.3,4.1c1,0,2.1-0.4,2.9-1.1c0.5-0.4,0.7-1,0.7-2.1v-5.9c0-2.3-0.3-2.4-1.3-2.8l-0.5-0.2
		c-0.3-0.1-0.3-0.6,0-0.8c1.4,0,3.4-0.3,4.2-0.6c0.2,0,0.3,0.1,0.3,0.3c-0.1,0.7-0.1,1.8-0.1,3.1v6c0,2.8,0.1,3.9,1.1,3.9
		c0.4,0,0.9-0.1,1.4-0.2c0.2,0.2,0.3,0.9,0,1c-1.4,0.3-3.5,0.6-4.7,1.3c-0.2,0-0.4-0.1-0.4-0.3v-1.5c0-0.3-0.1-0.5-0.3-0.5
		c-1.1,0.7-2.8,1.9-4.9,1.9c-3.2,0-4.3-1.6-4.3-4.5v-6c0-2.3,0-2.6-1.1-3l-0.4-0.2c-0.2-0.2-0.2-0.7,0.1-0.8c1.6,0,3-0.4,3.8-0.6
		c0.2,0,0.3,0.1,0.4,0.3c-0.1,0.6-0.1,1.4-0.1,3.1V691.3z"/>
	<path d="M289.1,691.4c0,2.8,0,4.2,1,4.2c0.4,0,1-0.2,1.5-0.4c0.3,0.1,0.3,1,0,1.1c-1.5,0.2-3.7,0.8-4.7,1.1c-0.2,0-0.4-0.1-0.4-0.3
		v-0.6c0-0.5,0-1-0.1-1.1h-0.1c-1.6,1.1-2.8,1.6-4.5,1.6c-4,0-6.6-3.1-6.6-6.9c0-5,3.8-8.2,8.7-8.2c1.2,0,2,0.2,2.4,0.3
		c0.2,0,0.2-0.2,0.2-0.5v-5.4c0-2.1,0-2.3-1.1-3l-0.4-0.2c-0.2-0.1-0.2-0.6,0-0.7c0.9-0.3,2.6-0.8,3.9-1.5c0.1,0,0.3,0.1,0.4,0.2
		c0,1.1-0.1,2.9-0.1,4.4V691.4z M286.4,686c0-0.7-0.1-1-0.4-1.4c-0.5-0.8-1.6-1.5-3-1.5c-3.3,0-4.9,2.8-4.9,6c0,3.3,1.8,6.3,5.3,6.3
		c1,0,2.2-0.4,2.8-1c0.2-0.2,0.3-0.8,0.3-1.3V686z"/>
	<path d="M297.4,686.3c0-1.4,0-1.6-1-2.2l-0.3-0.2c-0.1-0.1-0.1-0.5,0-0.6c0.8-0.3,2.9-1.2,3.7-1.8c0.2,0,0.3,0.1,0.4,0.2
		c-0.1,1.3-0.1,3-0.1,4.4v6.5c0,2.6,0.1,2.9,1.4,3.1l0.8,0.1c0.3,0.2,0.2,0.8-0.1,0.9c-1.1-0.1-2.1-0.1-3.4-0.1
		c-1.3,0-2.4,0-3.4,0.1c-0.3-0.1-0.3-0.7-0.1-0.9l0.8-0.1c1.3-0.2,1.4-0.5,1.4-3.1V686.3z M300.4,676.1c0,1.3-0.9,1.9-1.9,1.9
		c-1.1,0-1.8-0.8-1.8-1.8c0-1.2,0.9-1.9,1.9-1.9C299.7,674.2,300.4,675.1,300.4,676.1z"/>
	<path d="M321.1,689.4c0,4.5-3.1,7.7-7.6,7.7c-4.1,0-7.4-2.9-7.4-7.4c0-4.5,3.4-7.7,7.6-7.7C317.8,682,321.1,685,321.1,689.4z
		 M313.4,683.1c-2.4,0-4.1,2.3-4.1,6.2c0,3.3,1.5,6.8,4.6,6.8c3.2,0,4.1-3.3,4.1-6.1C318,686.9,316.8,683.1,313.4,683.1z"/>
	<path d="M334.2,673.7c-0.2-0.2-0.2-0.7,0.1-0.9c1,0.1,2.6,0.1,3.7,0.1c1,0,2.8,0,4.1-0.1c0.3,0.1,0.3,0.6,0.1,0.9l-0.8,0.1
		c-0.8,0.1-1.2,0.3-1.2,0.6c0,0.4,0.8,2.3,1.9,4.8c2,4.5,4.1,9,6.2,13.4c0.9-1.8,1.8-3.8,2.8-5.8c0.3-0.7,0.6-1.3,0.6-1.5
		c0-0.2-0.1-0.5-0.3-0.9c-1.3-2.9-2.6-5.7-3.9-8.6c-0.5-1.1-1.1-1.9-2.3-2l-0.9-0.1c-0.3-0.3-0.2-0.7,0.1-0.9c1,0.1,2.4,0.1,3.8,0.1
		c1.8,0,3.1,0,3.9-0.1c0.3,0.1,0.3,0.6,0.1,0.9l-0.9,0.1c-1.4,0.1-1.4,0.4-0.8,2c0.8,1.8,1.8,4,2.8,6.2c0.7-1.4,1.3-2.8,2.1-4.7
		c1.3-3,1.1-3.4,0-3.5l-1.1-0.1c-0.3-0.4-0.2-0.8,0.1-0.9c1,0.1,2,0.1,3.4,0.1c1.2,0,2.6,0,3.4-0.1c0.3,0.1,0.3,0.6,0.1,0.9l-1,0.1
		c-1.5,0.1-2.2,1.7-2.9,3.2c-0.8,1.3-2.3,4.4-2.8,5.7c-0.2,0.4-0.3,0.7-0.3,0.9s0.1,0.4,0.3,0.9c1.2,2.8,2.5,5.5,3.7,8.2
		c1.1-2.5,2.2-5,3.2-7.6c0.7-1.7,2.6-6.5,2.9-7.1c0.5-1.3,1.1-2.8,1.1-3.3c0-0.5-0.4-0.8-1.2-0.8l-1-0.1c-0.3-0.3-0.3-0.7,0-0.9
		c1.4,0.1,2.3,0.1,3.4,0.1c1.4,0,2.4,0,3.3-0.1c0.3,0.1,0.3,0.6,0.1,0.9l-0.7,0.1c-1.8,0.2-2.1,1.3-4.3,6.2l-2.6,6.1
		c-1.6,3.7-3,7.2-4.5,11c-0.1,0.1-0.3,0.1-0.4,0.1c-0.2,0-0.4,0-0.5-0.1c-1.1-3.2-3.2-7.7-4.3-10.2c-1.3,2.6-3.4,7.2-4.5,10.2
		c-0.1,0.1-0.3,0.1-0.4,0.1c-0.2,0-0.4,0-0.5-0.1c-0.6-1.5-2-4.7-2.5-5.8c-2.3-5-4.5-10-6.8-15c-0.7-1.5-1.1-2.4-2.6-2.6
		L334.2,673.7z"/>
	<path d="M383.9,689.4c0,4.5-3.1,7.7-7.6,7.7c-4.1,0-7.4-2.9-7.4-7.4c0-4.5,3.4-7.7,7.6-7.7C380.7,682,383.9,685,383.9,689.4z
		 M376.2,683.1c-2.4,0-4.1,2.3-4.1,6.2c0,3.3,1.5,6.8,4.6,6.8c3.2,0,4.1-3.3,4.1-6.1C380.8,686.9,379.6,683.1,376.2,683.1z"/>
	<path d="M390.5,686.3c0-1.4,0-1.6-1-2.2l-0.3-0.2c-0.1-0.1-0.1-0.5,0-0.6c0.8-0.3,2.7-1.2,3.6-1.8c0.2,0,0.3,0.1,0.3,0.3v2.1
		c0,0.2,0,0.3,0.1,0.3c1.3-1,2.6-2.2,3.9-2.2c0.9,0,1.6,0.6,1.6,1.4c0,1.2-1,1.6-1.5,1.6c-0.4,0-0.5-0.1-0.8-0.3
		c-0.5-0.4-1.1-0.6-1.6-0.6c-0.6,0-1,0.3-1.3,0.7c-0.4,0.5-0.5,1.5-0.5,2.8v4.9c0,2.6,0.1,3,1.4,3.1l1.3,0.1
		c0.3,0.2,0.2,0.8-0.1,0.9c-1.7-0.1-2.7-0.1-4-0.1c-1.3,0-2.4,0-3.3,0.1c-0.3-0.1-0.3-0.7-0.1-0.9l0.7-0.1c1.3-0.2,1.4-0.5,1.4-3.1
		V686.3z"/>
	<path d="M403.6,676.4c0-2.1,0-2.3-1.1-3l-0.4-0.2c-0.2-0.1-0.2-0.6,0-0.7c0.9-0.3,2.6-0.8,3.9-1.5c0.1,0,0.3,0.1,0.4,0.2
		c0,1.1-0.1,2.9-0.1,4.4v12.3c0,0.5,0,0.5,0.6,0.5c0.8,0,1.5-0.4,2.4-1.4l1.5-1.6c1-1.1,1.3-1.5,1.3-1.6c0-0.2-0.2-0.3-0.8-0.4
		l-0.9-0.1c-0.3-0.1-0.3-0.8,0-0.9h0.8c1.6,0,3.7-0.1,5.7-0.3c0.3,0.1,0.3,0.7,0.1,0.9l-1.1,0.2c-0.7,0.1-1.3,0.5-2.3,1.3
		c-1.4,1.1-2.6,2.4-3.3,3c-0.4,0.4-0.5,0.6-0.3,0.9c0.6,0.8,1.2,1.5,2.4,2.9c1.4,1.6,2.7,3,3.4,3.7c0.5,0.5,1.2,0.7,1.9,0.8l0.5,0.1
		c0.3,0.2,0.2,0.8-0.1,0.9c-1-0.1-2.3-0.1-3.4-0.1c-1.4,0-2.7,0-3.7,0.1c-0.3-0.1-0.3-0.8-0.1-0.9l0.6-0.1c0.5-0.1,0.9-0.1,0.9-0.4
		s-0.1-0.5-0.6-1l-3.8-4.4c-0.3-0.4-0.7-0.5-1.1-0.5c-0.6,0-0.7,0.1-0.7,1.2v2c0,2.6,0.1,2.9,1.4,3.1l0.9,0.1
		c0.3,0.2,0.2,0.8-0.1,0.9c-1.2-0.1-2.2-0.1-3.5-0.1c-1.3,0-2.4,0-3.4,0.1c-0.3-0.1-0.3-0.7,0-0.9l0.8-0.1c1.3-0.2,1.4-0.5,1.4-3.1
		V676.4z"/>
	<path d="M429.4,682.6c0.3,0.8,0.6,1.9,0.6,2.9c-0.1,0.3-0.7,0.3-0.9,0.1c-0.6-1.6-1.7-2.6-3.2-2.6c-1.4,0-2.3,0.9-2.3,2.2
		c0,1.5,1.5,2.3,2.8,3c1.9,1.1,3.7,2.3,3.7,4.8c0,2.7-2.5,4.1-5.2,4.1c-1.7,0-2.9-0.4-3.8-1.1c-0.3-0.7-0.5-2.4-0.4-3.6
		c0.2-0.2,0.6-0.3,0.8,0c0.6,2,1.8,3.7,3.8,3.7c1.3,0,2.4-0.8,2.4-2.3c0-1.6-1.4-2.5-2.8-3.3c-2.1-1.2-3.5-2.4-3.5-4.4
		c0-2.6,2.2-4.1,4.9-4.1C427.7,682,429,682.3,429.4,682.6z"/>
	<path d="M439.4,684c-0.6,0-0.6,0.1-0.6,0.9v6.7c0,2.1,0.3,4,2.6,4c0.4,0,0.7-0.1,1-0.2c0.3-0.1,0.8-0.5,0.9-0.5
		c0.3,0,0.4,0.4,0.4,0.6c-0.6,0.8-1.9,1.6-3.8,1.6c-3.1,0-3.7-1.7-3.7-3.9V685c0-1,0-1-0.8-1h-1c-0.2-0.1-0.3-0.5-0.1-0.8
		c1-0.3,1.9-0.8,2.3-1.1c0.5-0.4,1.1-1.4,1.5-2.1c0.2-0.1,0.6-0.1,0.8,0.2v1.6c0,0.6,0,0.7,0.6,0.7h4c0.4,0.3,0.4,1.3,0,1.5H439.4z"
		/>
	<path d="M454.2,689.2c0.5-0.2,0.6-0.5,0.6-1l0-1.6c0-1.3-0.4-3.1-2.6-3.1c-1,0-2.2,0.5-2.3,1.6c0,0.6-0.1,1-0.4,1.2
		c-0.5,0.4-1.5,0.7-2,0.7c-0.3,0-0.5-0.2-0.5-0.5c0-1.9,4.1-4.4,6.7-4.4c2.6,0,3.8,1.5,3.7,4.2l-0.2,6.2c-0.1,1.6,0.3,3.1,1.6,3.1
		c0.4,0,0.7-0.1,0.9-0.2c0.2-0.1,0.4-0.3,0.5-0.3c0.1,0,0.3,0.2,0.3,0.5c0,0.2-1.3,1.6-3,1.6c-0.9,0-1.7-0.3-2.3-1.1
		c-0.1-0.2-0.4-0.5-0.6-0.5c-0.3,0-0.7,0.3-1.4,0.7c-0.8,0.4-1.6,0.9-2.6,0.9c-1,0-1.9-0.3-2.5-0.8c-0.7-0.6-1.1-1.5-1.1-2.5
		c0-1.4,0.7-2.2,3-3L454.2,689.2z M452,695.5c0.7,0,1.8-0.5,2.2-0.9c0.4-0.4,0.4-0.9,0.5-1.7l0.1-2.1c0-0.4-0.1-0.5-0.4-0.5
		c-0.2,0-0.8,0.1-1.5,0.4c-2.1,0.7-3.2,1.3-3.2,2.7C449.7,694,450.2,695.5,452,695.5z"/>
	<path d="M468.4,684c-0.6,0-0.6,0.1-0.6,0.9v6.7c0,2.1,0.3,4,2.6,4c0.4,0,0.7-0.1,1-0.2c0.3-0.1,0.8-0.5,0.9-0.5
		c0.3,0,0.4,0.4,0.4,0.6c-0.6,0.8-1.9,1.6-3.8,1.6c-3.1,0-3.7-1.7-3.7-3.9V685c0-1,0-1-0.8-1h-1c-0.2-0.1-0.3-0.5-0.1-0.8
		c1-0.3,1.9-0.8,2.3-1.1c0.5-0.4,1.1-1.4,1.5-2.1c0.2-0.1,0.6-0.1,0.8,0.2v1.6c0,0.6,0,0.7,0.6,0.7h4c0.4,0.3,0.4,1.3,0,1.5H468.4z"
		/>
	<path d="M478.3,686.3c0-1.4,0-1.6-1-2.2l-0.3-0.2c-0.1-0.1-0.1-0.5,0-0.6c0.8-0.3,2.9-1.2,3.7-1.8c0.2,0,0.3,0.1,0.4,0.2
		c-0.1,1.3-0.1,3-0.1,4.4v6.5c0,2.6,0.1,2.9,1.4,3.1l0.8,0.1c0.3,0.2,0.2,0.8-0.1,0.9c-1.1-0.1-2.1-0.1-3.4-0.1
		c-1.3,0-2.4,0-3.4,0.1c-0.3-0.1-0.3-0.7-0.1-0.9l0.8-0.1c1.3-0.2,1.4-0.5,1.4-3.1V686.3z M481.3,676.1c0,1.3-0.9,1.9-1.9,1.9
		c-1.1,0-1.8-0.8-1.8-1.8c0-1.2,0.9-1.9,1.9-1.9C480.6,674.2,481.3,675.1,481.3,676.1z"/>
	<path d="M502,689.4c0,4.5-3.1,7.7-7.6,7.7c-4.1,0-7.4-2.9-7.4-7.4c0-4.5,3.4-7.7,7.6-7.7C498.7,682,502,685,502,689.4z
		 M494.3,683.1c-2.4,0-4.1,2.3-4.1,6.2c0,3.3,1.5,6.8,4.6,6.8c3.2,0,4.1-3.3,4.1-6.1C498.9,686.9,497.7,683.1,494.3,683.1z"/>
	<path d="M508.5,686.3c0-1.4,0-1.6-1-2.2l-0.3-0.2c-0.1-0.1-0.1-0.5,0-0.6c0.8-0.3,2.9-1.2,3.6-1.8c0.1,0,0.3,0.1,0.4,0.3
		c-0.1,0.8-0.1,1.4-0.1,1.7c0,0.2,0.1,0.4,0.4,0.4c1.5-0.9,3.2-1.8,5-1.8c3,0,4.2,2,4.2,4.4v6.2c0,2.6,0.1,2.9,1.4,3.1l0.8,0.1
		c0.3,0.2,0.2,0.8-0.1,0.9c-1.1-0.1-2.1-0.1-3.4-0.1c-1.3,0-2.4,0-3.3,0.1c-0.3-0.1-0.3-0.7-0.1-0.9l0.7-0.1
		c1.3-0.2,1.4-0.5,1.4-3.1v-5.3c0-2-0.9-3.5-3.4-3.5c-1.4,0-2.5,0.6-3,1.3c-0.5,0.6-0.5,1.1-0.5,2.2v5.5c0,2.6,0.1,2.9,1.4,3.1
		l0.6,0.1c0.3,0.2,0.2,0.8-0.1,0.9c-1-0.1-2-0.1-3.3-0.1c-1.3,0-2.4,0-3.4,0.1c-0.3-0.1-0.3-0.7-0.1-0.9l0.8-0.1
		c1.3-0.2,1.4-0.5,1.4-3.1V686.3z"/>
</g>
<g id="XMLID_67_">
	<path id="XMLID_80_" d="M145.3,577.5c0-13.4-0.3-15.3-7.7-16.2l-2-0.3c-0.8-0.5-0.5-2.8,0.3-3.2c5.4,0.3,9.7,0.4,14.8,0.4h23.7
		c8.1,0,15.5,0,17-0.4c0.8,2.2,1.5,11.5,2,17.1c-0.5,0.8-2.5,1-3.1,0.3c-1.9-6.1-3-10.6-9.6-12.2c-2.6-0.6-6.7-0.8-12.2-0.8h-9.1
		c-3.8,0-3.8,0.3-3.8,5.2v25.8c0,3.6,0.4,3.6,4.2,3.6h7.3c5.3,0,9.2-0.3,10.7-0.8s2.4-1.3,3-4.5l1-5.3c0.6-0.8,2.8-0.8,3.3,0.1
		c0,3.1-0.5,8.1-0.5,13c0,4.6,0.5,9.5,0.5,12.4c-0.5,0.9-2.6,0.9-3.3,0.1l-1.1-5c-0.5-2.3-1.4-4.3-3.9-4.9c-1.8-0.5-4.8-0.6-9.7-0.6
		h-7.3c-3.8,0-4.2,0.1-4.2,3.5v18.2c0,6.8,0.4,11.2,2.4,13.4c1.5,1.5,4.2,3,15.2,3c9.7,0,13.3-0.5,16.1-1.9
		c2.3-1.3,5.7-5.8,8.9-12.5c0.9-0.6,2.6-0.3,3.1,0.9c-0.9,4.5-4,14.4-5.7,17.9c-11.3-0.3-22.5-0.4-33.7-0.4h-11.3
		c-5.4,0-9.7,0.1-17.1,0.4c-0.8-0.4-1-2.4-0.3-3.2l4.2-0.4c7.2-0.6,7.8-2.6,7.8-16.1V577.5z"/>
	<path id="XMLID_77_" d="M279.1,613.3c-0.9-2.8-1.4-3.2-5.2-3.2h-19c-3.1,0-3.9,0.4-4.8,3.1l-4.4,13.5c-1.9,5.8-2.8,9.3-2.8,10.7
		c0,1.5,0.6,2.3,3.6,2.6l4.2,0.4c0.9,0.6,0.9,2.7-0.3,3.2c-3.3-0.3-7.2-0.3-13.1-0.4c-4.2,0-8.7,0.3-12.1,0.4
		c-0.8-0.5-1-2.6-0.3-3.2l4.2-0.4c3-0.3,5.8-1.7,7.5-6.3c2.3-5.9,5.8-14.3,11.1-28.7l12.8-34.8c1.8-4.6,2.5-7.1,2.1-9.1
		c3-0.9,5.2-3.2,6.5-4.9c0.8,0,1.6,0.3,1.9,1.2c1.6,5.7,3.6,11.6,5.5,17.3l17.2,51.8c3.6,11.1,5.3,13,10.7,13.7l3.4,0.4
		c0.9,0.6,0.6,2.7,0,3.2c-5.2-0.3-9.6-0.4-15.2-0.4c-6,0-10.8,0.3-14.5,0.4c-1-0.5-1.1-2.6-0.3-3.2l3.6-0.4c2.6-0.3,4.4-1,4.4-2.3
		c0-1.4-0.6-3.7-1.6-6.8L279.1,613.3z M254.2,601.8c-1,3-0.9,3.1,2.6,3.1h15.5c3.6,0,3.9-0.5,2.8-4l-6.8-21c-1-3.1-2.1-6.6-2.9-8.1
		h-0.3c-0.4,0.6-1.6,3.7-3,7.6L254.2,601.8z"/>
	<path id="XMLID_75_" d="M357.8,623.8c0,13.5,0.3,15.2,8.3,16.1l3.4,0.4c0.8,0.6,0.5,2.8-0.3,3.2c-7.2-0.3-11.3-0.4-16.4-0.4
		c-5.3,0-9.8,0.1-15.3,0.4c-0.8-0.4-1-2.4-0.3-3.2l2.6-0.4c7.3-1,7.5-2.6,7.5-16.1v-47.5c0-10.9-0.3-13.1-5.9-13.8l-4.5-0.5
		c-0.9-0.8-0.8-2.7,0.3-3.2c6.7-0.9,14.5-1,24.9-1s18.2,1.4,24.2,5.2c5.8,3.7,10.1,10.4,10.1,19.3c0,11.8-7.2,17.8-12.6,20.5
		c-5.5,2.7-12.2,3.9-17.4,3.9c-0.9-0.4-0.9-2.3-0.1-2.6c13.6-2.6,18.5-10.4,18.5-21.6c0-12.5-7.2-20.6-20.3-20.6
		c-6.7,0-6.8,0.5-6.8,4.6V623.8z"/>
	<path id="XMLID_73_" d="M440.2,577.5c0-13.4-0.3-15.3-7.7-16.2l-2-0.3c-0.8-0.5-0.5-2.8,0.3-3.2c5.4,0.3,9.7,0.4,14.8,0.4h23.7
		c8.1,0,15.5,0,17-0.4c0.8,2.2,1.5,11.5,2,17.1c-0.5,0.8-2.5,1-3.1,0.3c-1.9-6.1-3-10.6-9.6-12.2c-2.6-0.6-6.7-0.8-12.2-0.8h-9.1
		c-3.8,0-3.8,0.3-3.8,5.2v25.8c0,3.6,0.4,3.6,4.2,3.6h7.3c5.3,0,9.2-0.3,10.7-0.8c1.5-0.5,2.4-1.3,3-4.5l1-5.3
		c0.6-0.8,2.8-0.8,3.3,0.1c0,3.1-0.5,8.1-0.5,13c0,4.6,0.5,9.5,0.5,12.4c-0.5,0.9-2.6,0.9-3.3,0.1l-1.1-5c-0.5-2.3-1.4-4.3-3.9-4.9
		c-1.8-0.5-4.8-0.6-9.7-0.6h-7.3c-3.8,0-4.2,0.1-4.2,3.5v18.2c0,6.8,0.4,11.2,2.4,13.4c1.5,1.5,4.2,3,15.2,3
		c9.7,0,13.3-0.5,16.1-1.9c2.3-1.3,5.7-5.8,8.9-12.5c0.9-0.6,2.6-0.3,3.1,0.9c-0.9,4.5-4,14.4-5.7,17.9c-11.3-0.3-22.5-0.4-33.7-0.4
		h-11.3c-5.4,0-9.7,0.1-17.1,0.4c-0.8-0.4-1-2.4-0.3-3.2l4.2-0.4c7.2-0.6,7.8-2.6,7.8-16.1V577.5z"/>
	<path id="XMLID_72_" d="M366.4,604c-2.9,0.7-6.3,1.1-6.3,1.1c1.9,1,3.9,1.4,6.4,1.5"/>
	<path id="XMLID_71_" d="M74.6,605.3c-0.6-0.9-0.2-2.1,0.7-2.6l0,0c5.4-2.7,12.6-8.6,12.6-20.5c0-8.9-4.3-15.6-10.1-19.3
		c-5.6-3.6-13-5-22.8-5.1l0,0c-11,0-19,0.4-25.5,1c-1,0.5-1,2.6-0.1,3.2l4,0.5c5.2,0.6,5.5,2.8,5.5,15.1v46.2
		c0,13.5-0.3,15.2-7.5,16.1l-3.1,0.4c-0.8,0.9-0.5,2.8,0.3,3.2c5.9-0.3,10.4-0.4,15.7-0.4c5,0,9.3,0.1,15,0.4c0.8-0.4,1-2.6,0.3-3.2
		l-2.6-0.4c-7.3-1-7.5-2.6-7.5-16.1v-23.5v-33.9c0-4.1,0.1-4.6,6.8-4.6c13.1,0,20.3,8.1,20.3,20.6c0,11.2-4.9,19.1-18.5,21.6
		c-0.8,0.3-0.8,2.2,0.1,2.6c0.6,0,1.2,0,1.9-0.1c1.5-0.1,3,0.5,3.9,1.8c0.1,0.2,0.3,0.4,0.4,0.6c3.9,5.8,9.1,14.7,12.3,19.4
		c8.9,13,15.3,16.2,26,16.2c2.4,0,4.4-0.3,5.5-0.6c0.6-0.5,0.5-1.5-0.1-1.8c-3.4-0.3-6.5-1.7-8.7-3.6
		C91,631.4,84.1,620.9,74.6,605.3z"/>
	<path id="XMLID_70_" d="M574.5,605.3c-0.6-0.9-0.2-2.1,0.7-2.6l0,0c5.4-2.7,12.6-8.6,12.6-20.5c0-8.9-4.3-15.6-10.1-19.3
		c-5.6-3.6-13-5-22.8-5.1l0,0c-11,0-19,0.4-25.5,1c-1,0.5-1,2.6-0.1,3.2l4,0.5c5.2,0.6,5.5,2.8,5.5,15.1v46.2
		c0,13.5-0.3,15.2-7.5,16.1l-3.1,0.4c-0.8,0.9-0.5,2.8,0.3,3.2c5.9-0.3,10.4-0.4,15.7-0.4c5,0,9.3,0.1,15,0.4c0.8-0.4,1-2.6,0.3-3.2
		l-2.6-0.4c-7.3-1-7.5-2.6-7.5-16.1v-23.5v-33.9c0-4.1,0.1-4.6,6.8-4.6c13.1,0,20.3,8.1,20.3,20.6c0,11.2-4.9,19.1-18.5,21.6
		c-0.8,0.3-0.8,2.2,0.1,2.6c0.6,0,1.2,0,1.9-0.1c1.5-0.1,3,0.5,3.9,1.8c0.1,0.2,0.3,0.4,0.4,0.6c3.9,5.8,9.1,14.7,12.3,19.4
		c8.9,13,15.3,16.2,26,16.2c2.4,0,4.4-0.3,5.5-0.6c0.6-0.5,0.5-1.5-0.1-1.8c-3.4-0.3-6.5-1.7-8.7-3.6
		C590.9,631.4,584,620.9,574.5,605.3z"/>
</g>
<path id="XMLID_66_" d="M309.5,455.5c-66.2,0-202.6-150.3-202.6-269.7C106.9,55.3,254,24.4,309.5,24.4s202.6,31,202.6,161.4
	C512.1,305.2,375.6,455.5,309.5,455.5z"/>
<path id="XMLID_49_" fill="#FFFFFF" d="M273.4,187.8C273.4,187.7,273.3,187.7,273.4,187.8c-1.3-1.3-2.5-2.4-3.6-3.6
	c0-0.1-0.1-0.1-0.2-0.2c-13.2-13.5-24.4-28.9-33.2-45.8c27.3-13.1,57.8-20.4,90.1-20.4c50.2,0,96.2,17.8,132.2,47.3
	c-45.9-43.9-108.1-70.8-176.5-70.8c-20.8,0-41,2.5-60.3,7.2c-14.3,3.5-28.1,8.1-41.3,13.9c3.3,8,7,15.9,11.2,23.4
	c3.6,6.6,7.6,13.1,11.8,19.3c11.3,16.7,24.8,31.8,39.9,45c0.2,0.2,0.4,0.4,0.7,0.6c0.7,0.6,1.4,1.2,2,1.8c0,0,0.1,0,0.1,0.1
	c40,35.2,65.3,86.8,65.3,144.3c0,23.2-4.1,45.4-11.6,66c17.1-28.3,26.9-61.4,26.9-96.9c0-26.4-5.5-51.6-15.3-74.4
	C302.3,223.2,289.3,204.1,273.4,187.8z"/>
</svg>
