<?xml version="1.0" encoding="utf-8"?>
<!-- Generator: Adobe Illustrator 19.1.0, SVG Export Plug-In . SVG Version: 6.00 Build 0)  -->
<svg version="1.2" baseProfile="tiny" id="Layer_2" xmlns="http://www.w3.org/2000/svg" xmlns:xlink="http://www.w3.org/1999/xlink"
	 x="0px" y="0px" width="301px" height="319.4px" viewBox="0 0 301 319.4" xml:space="preserve">
<path fill="#617070" d="M150.5,19.2c-36.9,0-134.6,20.6-134.6,107.3c0,79.4,90.7,179.2,134.6,179.2s134.6-99.9,134.6-179.2
	C285.2,39.7,187.4,19.2,150.5,19.2z"/>
<path fill="#2194CD" d="M150.5,19.2c-14.7,0-39,3.3-63,12.7c-11,4.3-21.8,9.9-31.7,17c2,10.7,5,20.9,9,30.7c8.8-3.8,18-6.9,27.4-9.2
	c12.8-3.1,26.2-4.8,40-4.8c45.5,0,86.8,17.9,117.3,47l0,0c0.8,0.8,1.6,1.6,2.4,2.4c0.4,0.4,0.8,0.8,1.2,1.2c0.5,0.5,0.9,0.9,1.4,1.4
	c0.4,0.4,0.8,0.9,1.2,1.3c0.4,0.5,0.9,0.9,1.3,1.4c0.4,0.4,0.8,0.9,1.2,1.3c0.4,0.5,0.9,1,1.3,1.5c0.4,0.4,0.8,0.8,1.1,1.3
	c0.7,0.9,1.5,1.7,2.2,2.6c0.4,0.5,0.7,0.9,1.1,1.4c0.4,0.5,0.8,1,1.2,1.5c0.4,0.5,0.8,1,1.2,1.5c0.4,0.5,0.7,1,1.1,1.5
	c0.4,0.5,0.8,1,1.1,1.5c0.4,0.5,0.7,1,1.1,1.5c0.4,0.5,0.7,1,1.1,1.5c0.5,0.7,1,1.4,1.5,2.1c0.5,0.7,1,1.5,1.5,2.2
	c0.3,0.5,0.6,1,1,1.5c0.4,0.6,0.7,1.1,1.1,1.7c0.3,0.5,0.6,0.9,0.9,1.4c0.4,0.6,0.7,1.1,1.1,1.7c0,0,0,0,0,0
	c0.3,0.5,0.6,0.9,0.8,1.4c0.4,0.6,0.7,1.2,1.1,1.8c0.2,0.4,0.5,0.8,0.7,1.2c0.4,0.7,0.8,1.5,1.2,2.2c0.8-3.3,1.4-6.7,2-10
	c1-6.2,1.5-12.3,1.5-18.3C285.2,39.7,187.4,19.2,150.5,19.2z"/>
<path fill="#774B29" d="M89.5,101.6c4-2.5,8.2-4.7,12.4-6.8c-4-7.7-7.3-15.9-9.7-24.4c-9.5,2.3-18.6,5.4-27.4,9.2
	c2.2,5.3,4.7,10.5,7.4,15.6C78.2,96.9,84,99,89.5,101.6z"/>
<path fill="#765533" d="M161.8,81.2c33.3,0,63.9,11.8,87.8,31.5c-30.5-29.1-71.8-47-117.3-47c-13.8,0-27.2,1.7-40,4.8
	c2.4,8.5,5.7,16.7,9.7,24.4C120.1,86.1,140.4,81.2,161.8,81.2z"/>
<path fill="#B1665C" d="M102,94.8c-4.3,2.1-8.4,4.3-12.4,6.8c13.2,6.1,25.2,14.4,35.4,24.5C115.8,117,108,106.4,102,94.8z"/>
<path fill="#B96753" d="M280.5,152.5c-0.2-0.4-0.4-0.8-0.7-1.2c-0.3-0.6-0.7-1.2-1.1-1.8c-0.3-0.5-0.5-0.9-0.8-1.4c0,0,0,0,0,0
	c-0.3-0.6-0.7-1.2-1.1-1.7c-0.3-0.5-0.6-0.9-0.9-1.4c-0.4-0.6-0.7-1.1-1.1-1.7c-0.3-0.5-0.6-1-1-1.5c-0.5-0.7-1-1.5-1.5-2.2
	c-0.5-0.7-1-1.4-1.5-2.1c-0.4-0.5-0.7-1-1.1-1.5c-0.4-0.5-0.7-1-1.1-1.5c-0.4-0.5-0.8-1-1.1-1.5c-0.4-0.5-0.7-1-1.1-1.5
	c-0.4-0.5-0.8-1-1.2-1.5c-0.4-0.5-0.8-1-1.2-1.5c-0.4-0.5-0.7-0.9-1.1-1.4c-0.7-0.9-1.5-1.7-2.2-2.6c-0.4-0.4-0.7-0.9-1.1-1.3
	c-0.4-0.5-0.9-1-1.3-1.5c-0.4-0.4-0.8-0.9-1.2-1.3c-0.4-0.5-0.9-0.9-1.3-1.4c-0.4-0.4-0.8-0.9-1.2-1.3c-0.5-0.5-0.9-1-1.4-1.4
	c-0.4-0.4-0.8-0.8-1.2-1.2c-0.8-0.8-1.6-1.6-2.4-2.4c-23.9-19.7-54.5-31.5-87.8-31.5c-21.4,0-41.7,4.9-59.8,13.6
	c6.1,11.6,13.8,22.2,23,31.3c0.2,0.2,0.5,0.5,0.7,0.7c11,11,19.9,24.1,26.2,38.5c6.6,15.2,10.2,31.9,10.2,49.4
	c0,23.6-6.5,45.6-17.9,64.4c-2.9,7.9-6.5,15.4-10.8,22.5c6.2,2.6,12.1,4,17.3,4c38.2,0,111.5-75.2,130.2-147c0.3-1.3,0.7-2.6,1-4
	C281.3,154,280.9,153.3,280.5,152.5z"/>
<path fill="#98721E" d="M72.3,95.1c2.4,4.4,5,8.7,7.8,12.8c3.1-2.2,6.2-4.4,9.4-6.4C84,99,78.2,96.9,72.3,95.1z"/>
<path fill="#CB873D" d="M151.9,235.3c0,15.4-2.7,30.2-7.8,43.9c11.4-18.8,17.9-40.8,17.9-64.4c0-17.6-3.6-34.3-10.2-49.4
	c-16.1-6.4-31-15.4-43.9-26.4C134.8,162.4,151.9,196.9,151.9,235.3z"/>
<path fill="#C58846" d="M124.9,126.2c-10.2-10.1-22.2-18.4-35.4-24.5c-3.2,2-6.4,4.1-9.4,6.4c7.6,11.2,16.6,21.3,26.8,30.2
	c0.3,0.3,0.6,0.5,1,0.8c13,11.1,27.8,20.1,43.9,26.4c-6.3-14.5-15.2-27.5-26.2-38.5C125.4,126.6,125.2,126.4,124.9,126.2z"/>
<path fill="#65C32F" d="M107.9,139c-0.3-0.3-0.6-0.5-1-0.8c-10.9-9.3-23.4-16.8-37-22c-14.2-5.4-29.6-8.4-45.7-8.4
	c-1.3,0-2.6,0-3.9,0.1c-1,0-1.9,0.1-2.9,0.1c-0.2,1-0.3,1.9-0.5,2.9c-0.7,4.9-1.1,10.1-1.1,15.6c0,18.2,4.8,37.4,12.6,56.3
	C50,234.3,94.5,283,128.7,299.7c1.5,0.8,3.1,1.4,4.6,2c4.3-7.1,8-14.6,10.8-22.5c5-13.7,7.8-28.5,7.8-43.9
	C151.9,196.9,134.8,162.4,107.9,139z"/>
<path fill="#B1665C" d="M280.5,152.5c-0.2-0.4-0.4-0.8-0.7-1.2c-0.3-0.6-0.7-1.2-1.1-1.8c-0.3-0.5-0.5-0.9-0.8-1.4c0,0,0,0,0,0
	C259.5,158.2,238.4,164,216,164c-35.2,0-67.1-14.2-90.3-37.1c11,11,19.9,24.1,26.2,38.5c17.7,7,36.9,10.8,57.1,10.8
	c25.9,0,50.3-6.3,71.8-17.5c0.3-1.3,0.7-2.6,1-4C281.3,154,280.9,153.3,280.5,152.5z"/>
<path fill="#B06E64" d="M276,145c-0.4-0.6-0.7-1.1-1.1-1.7c-0.3-0.5-0.6-1-1-1.5c-0.5-0.7-1-1.5-1.5-2.2c-0.5-0.7-1-1.4-1.5-2.1
	c-0.4-0.5-0.7-1-1.1-1.5c-0.4-0.5-0.7-1-1.1-1.5c-0.4-0.5-0.8-1-1.1-1.5c-0.4-0.5-0.7-1-1.1-1.5c-0.4-0.5-0.8-1-1.2-1.5
	c-0.4-0.5-0.8-1-1.2-1.5c-0.4-0.5-0.7-0.9-1.1-1.4c-0.7-0.9-1.5-1.7-2.2-2.6c-0.4-0.4-0.7-0.9-1.1-1.3c-0.4-0.5-0.9-1-1.3-1.5
	c-0.4-0.4-0.8-0.9-1.2-1.3c-0.4-0.5-0.9-0.9-1.3-1.4c-0.4-0.4-0.8-0.9-1.2-1.3c-0.5-0.5-0.9-1-1.4-1.4c-0.4-0.4-0.8-0.8-1.2-1.2
	c-0.8-0.8-1.6-1.6-2.4-2.4c-23.9-19.7-54.5-31.5-87.8-31.5c-21.4,0-41.7,4.9-59.8,13.6c6.1,11.6,13.8,22.2,23,31.3
	c0.2,0.2,0.5,0.5,0.7,0.7c23.2,22.9,55.1,37.1,90.3,37.1c22.5,0,43.6-5.8,61.9-15.9c-0.3-0.6-0.7-1.2-1.1-1.7
	C276.6,145.9,276.3,145.4,276,145z"/>
<path fill="#2169A5" d="M92.3,70.4c-3.1-11.1-4.8-22.8-4.8-34.9c0-1.2,0-2.4,0.1-3.6c-11,4.3-21.8,9.9-31.7,17c2,10.7,5,20.9,9,30.7
	C73.6,75.8,82.8,72.7,92.3,70.4z"/>
<path fill="#2169A5" d="M277.9,148.1c0.3,0.5,0.6,0.9,0.8,1.4c0.4,0.6,0.7,1.2,1.1,1.8c0.2,0.4,0.5,0.8,0.7,1.2
	c0.4,0.7,0.8,1.5,1.2,2.2c0.8-3.3,1.4-6.7,2-10C281.8,145.9,279.9,147,277.9,148.1C277.9,148.1,277.9,148.1,277.9,148.1z"/>
<path fill="#5CB23F" d="M128.7,299.7c1.5,0.8,3.1,1.4,4.6,2c4.3-7.1,8-14.6,10.8-22.5C139.7,286.6,134.5,293.4,128.7,299.7z"/>
<path fill="#44C741" d="M17.5,107.9c-0.2,1-0.3,1.9-0.5,2.9c1.1-1,2.2-2,3.4-3C19.4,107.8,18.4,107.9,17.5,107.9z"/>
<path fill="#52B810" d="M28.5,182.8c7.2-26.1,21.8-49.1,41.4-66.6c-14.2-5.4-29.6-8.4-45.7-8.4c-1.3,0-2.6,0-3.9,0.1
	c-1.1,1-2.2,2-3.4,3c-0.7,4.9-1.1,10.1-1.1,15.6C15.9,144.6,20.6,163.9,28.5,182.8z"/>
<path fill="#864B1C" d="M64.8,79.6c-7.2,3.1-14.1,6.7-20.8,10.8c9.7,0.5,19.2,2.2,28.2,4.8C69.5,90.1,67,84.9,64.8,79.6z"/>
<path fill="#898F54" d="M20.3,107.8c7.4-6.5,15.3-12.3,23.7-17.5c-2.2-0.1-4.5-0.2-6.7-0.2c-5.1,0-10.2,0.3-15.2,0.9
	c-2,5.2-3.6,10.9-4.7,16.8C18.4,107.9,19.4,107.8,20.3,107.8z"/>
<path fill="#A47215" d="M69.9,116.2c3.3-2.9,6.6-5.6,10.2-8.2c-2.8-4.1-5.4-8.4-7.8-12.8c-9-2.6-18.5-4.3-28.2-4.8
	c-8.4,5.1-16.3,11-23.7,17.5c1.3,0,2.6-0.1,3.9-0.1C40.4,107.8,55.8,110.7,69.9,116.2z"/>
<path fill="#CB873D" d="M80.1,108c-3.5,2.6-6.9,5.3-10.2,8.2c13.6,5.2,26.1,12.7,37,22C96.7,129.3,87.7,119.2,80.1,108z"/>
<path fill="#FFFFFF" d="M126.3,127.5C126.3,127.5,126.2,127.4,126.3,127.5c-0.7-0.7-1.3-1.3-1.8-1.8c0,0-0.1-0.1-0.1-0.1
	c-8.9-9-16.5-19.4-22.4-30.8c18.1-8.7,38.4-13.6,59.8-13.6c33.4,0,63.9,11.8,87.8,31.5c-30.5-29.2-71.8-47.1-117.3-47.1
	c-13.8,0-27.2,1.6-40.1,4.8c-9.5,2.3-18.6,5.4-27.4,9.2c2.2,5.3,4.7,10.5,7.4,15.6c2.4,4.4,5,8.7,7.8,12.8
	c7.5,11.1,16.5,21.1,26.5,29.9c0.1,0.1,0.3,0.3,0.4,0.4c0.5,0.4,0.9,0.8,1.4,1.2c0,0,0,0,0.1,0.1c26.6,23.4,43.4,57.7,43.4,95.9
	c0,15.4-2.7,30.2-7.7,43.9c11.4-18.8,17.9-40.8,17.9-64.4c0-17.6-3.6-34.3-10.2-49.4C145.7,151.2,137,138.4,126.3,127.5z"/>
</svg>
